<?xml version="1.0" encoding="UTF-8"?>
<svg xmlns="http://www.w3.org/2000/svg" viewBox="0 0 720 330" width="720" height="330" role="img" aria-labelledby="title desc">
<title id="title">The dot product is a shadow times a length</title>
<desc id="desc">Left: v = (4, 2) casts a shadow of length 4 on the line of w = (3, 4), which is 5 long, so v · w = 4 × 5 = 20. Right: three small panels show the sign: positive when v points along w, zero when perpendicular, negative when it points away.</desc>
<rect width="720" height="330" fill="#fcfcfb"/>
<g font-family="system-ui, -apple-system, 'Segoe UI', Helvetica, Arial, sans-serif" font-size="12" fill="#0b0b0b">
<line x1="69.2" y1="286.4" x2="69.2" y2="40" stroke="#c3c2b7" stroke-width="1"/>
<line x1="113.2" y1="286.4" x2="113.2" y2="40" stroke="#e1e0d9" stroke-width="1"/>
<line x1="157.2" y1="286.4" x2="157.2" y2="40" stroke="#e1e0d9" stroke-width="1"/>
<line x1="201.2" y1="286.4" x2="201.2" y2="40" stroke="#e1e0d9" stroke-width="1"/>
<line x1="245.2" y1="286.4" x2="245.2" y2="40" stroke="#e1e0d9" stroke-width="1"/>
<line x1="289.2" y1="286.4" x2="289.2" y2="40" stroke="#e1e0d9" stroke-width="1"/>
<line x1="34" y1="251.2" x2="289.2" y2="251.2" stroke="#c3c2b7" stroke-width="1"/>
<line x1="34" y1="207.2" x2="289.2" y2="207.2" stroke="#e1e0d9" stroke-width="1"/>
<line x1="34" y1="163.2" x2="289.2" y2="163.2" stroke="#e1e0d9" stroke-width="1"/>
<line x1="34" y1="119.2" x2="289.2" y2="119.2" stroke="#e1e0d9" stroke-width="1"/>
<line x1="34" y1="75.2" x2="289.2" y2="75.2" stroke="#e1e0d9" stroke-width="1"/>
<text x="113.2" y="264.2" fill="#898781" text-anchor="middle">1</text>
<text x="157.2" y="264.2" fill="#898781" text-anchor="middle">2</text>
<text x="201.2" y="264.2" fill="#898781" text-anchor="middle">3</text>
<text x="245.2" y="264.2" fill="#898781" text-anchor="middle">4</text>
<text x="289.2" y="264.2" fill="#898781" text-anchor="middle">5</text>
<text x="64.2" y="211.2" fill="#898781" text-anchor="end">1</text>
<text x="64.2" y="167.2" fill="#898781" text-anchor="end">2</text>
<text x="64.2" y="123.2" fill="#898781" text-anchor="end">3</text>
<text x="64.2" y="79.2" fill="#898781" text-anchor="end">4</text>
<line x1="42.8" y1="286.4" x2="45.8" y2="282.4" stroke="#c3c2b7" stroke-width="1"/>
<line x1="47.9" y1="279.6" x2="50.9" y2="275.6" stroke="#c3c2b7" stroke-width="1"/>
<line x1="53" y1="272.8" x2="56" y2="268.8" stroke="#c3c2b7" stroke-width="1"/>
<line x1="58.1" y1="266" x2="61.1" y2="262" stroke="#c3c2b7" stroke-width="1"/>
<line x1="63.2" y1="259.2" x2="66.2" y2="255.2" stroke="#c3c2b7" stroke-width="1"/>
<line x1="68.3" y1="252.4" x2="71.3" y2="248.4" stroke="#c3c2b7" stroke-width="1"/>
<line x1="73.4" y1="245.6" x2="76.4" y2="241.6" stroke="#c3c2b7" stroke-width="1"/>
<line x1="78.5" y1="238.8" x2="81.5" y2="234.8" stroke="#c3c2b7" stroke-width="1"/>
<line x1="83.6" y1="232" x2="86.6" y2="228" stroke="#c3c2b7" stroke-width="1"/>
<line x1="88.7" y1="225.2" x2="91.7" y2="221.2" stroke="#c3c2b7" stroke-width="1"/>
<line x1="93.8" y1="218.4" x2="96.8" y2="214.4" stroke="#c3c2b7" stroke-width="1"/>
<line x1="98.9" y1="211.6" x2="101.9" y2="207.6" stroke="#c3c2b7" stroke-width="1"/>
<line x1="104" y1="204.8" x2="107" y2="200.8" stroke="#c3c2b7" stroke-width="1"/>
<line x1="109.1" y1="198" x2="112.1" y2="194" stroke="#c3c2b7" stroke-width="1"/>
<line x1="114.2" y1="191.2" x2="117.2" y2="187.2" stroke="#c3c2b7" stroke-width="1"/>
<line x1="119.3" y1="184.4" x2="122.3" y2="180.4" stroke="#c3c2b7" stroke-width="1"/>
<line x1="124.4" y1="177.6" x2="127.4" y2="173.6" stroke="#c3c2b7" stroke-width="1"/>
<line x1="129.5" y1="170.8" x2="132.5" y2="166.8" stroke="#c3c2b7" stroke-width="1"/>
<line x1="134.6" y1="164" x2="137.6" y2="160" stroke="#c3c2b7" stroke-width="1"/>
<line x1="139.7" y1="157.2" x2="142.7" y2="153.2" stroke="#c3c2b7" stroke-width="1"/>
<line x1="144.8" y1="150.4" x2="147.8" y2="146.4" stroke="#c3c2b7" stroke-width="1"/>
<line x1="149.9" y1="143.6" x2="152.9" y2="139.6" stroke="#c3c2b7" stroke-width="1"/>
<line x1="155" y1="136.8" x2="158" y2="132.8" stroke="#c3c2b7" stroke-width="1"/>
<line x1="160.1" y1="130" x2="163.1" y2="126" stroke="#c3c2b7" stroke-width="1"/>
<line x1="165.2" y1="123.2" x2="168.2" y2="119.2" stroke="#c3c2b7" stroke-width="1"/>
<line x1="170.3" y1="116.4" x2="173.3" y2="112.4" stroke="#c3c2b7" stroke-width="1"/>
<line x1="175.4" y1="109.6" x2="178.4" y2="105.6" stroke="#c3c2b7" stroke-width="1"/>
<line x1="180.5" y1="102.8" x2="183.5" y2="98.8" stroke="#c3c2b7" stroke-width="1"/>
<line x1="185.6" y1="96" x2="188.6" y2="92" stroke="#c3c2b7" stroke-width="1"/>
<line x1="190.7" y1="89.2" x2="193.7" y2="85.2" stroke="#c3c2b7" stroke-width="1"/>
<line x1="195.8" y1="82.4" x2="198.8" y2="78.4" stroke="#c3c2b7" stroke-width="1"/>
<line x1="200.9" y1="75.6" x2="203.9" y2="71.6" stroke="#c3c2b7" stroke-width="1"/>
<line x1="206" y1="68.8" x2="209" y2="64.8" stroke="#c3c2b7" stroke-width="1"/>
<line x1="211.1" y1="62" x2="214.1" y2="58" stroke="#c3c2b7" stroke-width="1"/>
<line x1="216.2" y1="55.2" x2="219.2" y2="51.2" stroke="#c3c2b7" stroke-width="1"/>
<line x1="221.3" y1="48.4" x2="224.3" y2="44.4" stroke="#c3c2b7" stroke-width="1"/>
<line x1="226.4" y1="41.6" x2="227.6" y2="40" stroke="#c3c2b7" stroke-width="1"/>
<line x1="63.6" y1="247.0" x2="169.2" y2="106.2" stroke="#1baf7a" stroke-width="6"/>
<line x1="245.2" y1="163.2" x2="241.2" y2="160.2" stroke="#52514e" stroke-width="1.2"/>
<line x1="238.4" y1="158.1" x2="234.4" y2="155.1" stroke="#52514e" stroke-width="1.2"/>
<line x1="231.6" y1="153" x2="227.6" y2="150" stroke="#52514e" stroke-width="1.2"/>
<line x1="224.8" y1="147.9" x2="220.8" y2="144.9" stroke="#52514e" stroke-width="1.2"/>
<line x1="218" y1="142.8" x2="214" y2="139.8" stroke="#52514e" stroke-width="1.2"/>
<line x1="211.2" y1="137.7" x2="207.2" y2="134.7" stroke="#52514e" stroke-width="1.2"/>
<line x1="204.4" y1="132.6" x2="200.4" y2="129.6" stroke="#52514e" stroke-width="1.2"/>
<line x1="197.6" y1="127.5" x2="193.6" y2="124.5" stroke="#52514e" stroke-width="1.2"/>
<line x1="190.8" y1="122.4" x2="186.8" y2="119.4" stroke="#52514e" stroke-width="1.2"/>
<line x1="184" y1="117.3" x2="180" y2="114.3" stroke="#52514e" stroke-width="1.2"/>
<line x1="177.2" y1="112.2" x2="174.8" y2="110.4" stroke="#52514e" stroke-width="1.2"/>
<path d="M170.6 116 L176.2 120.3 L180.4 114.6" fill="none" stroke="#52514e" stroke-width="1"/>
<line x1="69.2" y1="251.2" x2="200.6" y2="76" stroke="#eb6834" stroke-width="2.5"/>
<path d="M193.3 79.6 L201.2 75.2 L199.2 84" fill="none" stroke="#eb6834" stroke-width="2.5"/>
<line x1="69.2" y1="251.2" x2="244.3" y2="163.6" stroke="#2a78d6" stroke-width="2.5"/>
<path d="M236.2 163.6 L245.2 163.2 L239.5 170.2" fill="none" stroke="#2a78d6" stroke-width="2.5"/>
<rect x="206.2" y="67.2" width="73.2" height="17" rx="2" fill="#fcfcfb"/>
<text x="209.2" y="79.2" fill="#eb6834">w = (3, 4)</text>
<rect x="248.2" y="169.2" width="73.2" height="17" rx="2" fill="#fcfcfb"/>
<text x="251.2" y="181.2" fill="#2a78d6">v = (4, 2)</text>
<rect x="98.8" y="92.0" width="59.8" height="17" rx="2" fill="#fcfcfb"/>
<text x="155.5" y="104.0" fill="#1baf7a" text-anchor="end">shadow 4</text>
<text x="161.6" y="26" font-size="13" text-anchor="middle" font-weight="600">v · w = 4 × 5 = 20</text>
<text x="34" y="310.4">by numbers: 4×3 + 2×4 = 20</text>
<rect x="372" y="30" width="96" height="82" rx="2" fill="#fcfcfb" stroke="#e1e0d9" stroke-width="1"/>
<line x1="372" y1="76" x2="468" y2="76" stroke="#e1e0d9" stroke-width="1"/>
<line x1="420" y1="112" x2="420" y2="30" stroke="#e1e0d9" stroke-width="1"/>
<line x1="420" y1="76" x2="449.4" y2="36.8" stroke="#eb6834" stroke-width="2"/>
<path d="M442.1 40.4 L450 36 L448 44.8" fill="none" stroke="#eb6834" stroke-width="2"/>
<line x1="420" y1="76" x2="459.1" y2="56.4" stroke="#2a78d6" stroke-width="2"/>
<path d="M451 56.4 L460 56 L454.3 63" fill="none" stroke="#2a78d6" stroke-width="2"/>
<text x="482" y="60" fill="#2a78d6" font-weight="600">v = (4, 2)</text>
<text x="482" y="78">v · w = 4×3 + 2×4 = 20</text>
<text x="482" y="95" fill="#52514e">points along w: positive</text>
<rect x="372" y="130" width="96" height="82" rx="2" fill="#fcfcfb" stroke="#e1e0d9" stroke-width="1"/>
<line x1="372" y1="176" x2="468" y2="176" stroke="#e1e0d9" stroke-width="1"/>
<line x1="420" y1="212" x2="420" y2="130" stroke="#e1e0d9" stroke-width="1"/>
<line x1="420" y1="176" x2="449.4" y2="136.8" stroke="#eb6834" stroke-width="2"/>
<path d="M442.1 140.4 L450 136 L448 144.8" fill="none" stroke="#eb6834" stroke-width="2"/>
<line x1="420" y1="176" x2="459.2" y2="205.4" stroke="#2a78d6" stroke-width="2"/>
<path d="M455.6 198.1 L460 206 L451.2 204" fill="none" stroke="#2a78d6" stroke-width="2"/>
<text x="482" y="160" fill="#2a78d6" font-weight="600">v = (4, −3)</text>
<text x="482" y="178">v · w = 4×3 + (−3)×4 = 0</text>
<text x="482" y="195" fill="#52514e">perpendicular: zero</text>
<rect x="372" y="230" width="96" height="82" rx="2" fill="#fcfcfb" stroke="#e1e0d9" stroke-width="1"/>
<line x1="372" y1="276" x2="468" y2="276" stroke="#e1e0d9" stroke-width="1"/>
<line x1="420" y1="312" x2="420" y2="230" stroke="#e1e0d9" stroke-width="1"/>
<line x1="420" y1="276" x2="449.4" y2="236.8" stroke="#eb6834" stroke-width="2"/>
<path d="M442.1 240.4 L450 236 L448 244.8" fill="none" stroke="#eb6834" stroke-width="2"/>
<line x1="420" y1="276" x2="381.0" y2="285.8" stroke="#2a78d6" stroke-width="2"/>
<path d="M388.9 287.6 L380 286 L387.1 280.4" fill="none" stroke="#2a78d6" stroke-width="2"/>
<text x="482" y="260" fill="#2a78d6" font-weight="600">v = (−4, −1)</text>
<text x="482" y="278">v · w = (−4)×3 + (−1)×4 = −16</text>
<text x="482" y="295" fill="#52514e">points away: negative</text>
</g>
</svg>
