<?xml version="1.0" encoding="UTF-8"?>
<svg xmlns="http://www.w3.org/2000/svg" viewBox="0 0 720 330" width="720" height="330" role="img" aria-labelledby="title desc">
<title id="title">Batch normalisation of six weighted sums: centre, rescale, then apply the learned scale and shift</title>
<desc id="desc">Three number lines: the raw weighted sums of six books around 14; the same values after subtracting the batch mean and dividing by the batch standard deviation, centred on 0; and after multiplying by gamma 2 and adding beta 1.</desc>
<rect width="720" height="330" fill="#fcfcfb"/>
<g font-family="system-ui, -apple-system, 'Segoe UI', Helvetica, Arial, sans-serif" font-size="12" fill="#0b0b0b">
<text x="20" y="74" font-weight="600">weighted sums z</text>
<text x="20" y="92" fill="#52514e">mean 14, sd 4.01</text>
<line x1="200" y1="70" x2="680" y2="70" stroke="#c3c2b7" stroke-width="1"/>
<line x1="200" y1="70" x2="200" y2="74" stroke="#c3c2b7" stroke-width="1"/>
<text x="200" y="88" fill="#898781" text-anchor="middle">8</text>
<line x1="268.6" y1="70" x2="268.6" y2="74" stroke="#c3c2b7" stroke-width="1"/>
<text x="268.6" y="88" fill="#898781" text-anchor="middle">10</text>
<line x1="337.1" y1="70" x2="337.1" y2="74" stroke="#c3c2b7" stroke-width="1"/>
<text x="337.1" y="88" fill="#898781" text-anchor="middle">12</text>
<line x1="405.7" y1="70" x2="405.7" y2="74" stroke="#c3c2b7" stroke-width="1"/>
<text x="405.7" y="88" fill="#898781" text-anchor="middle">14</text>
<line x1="474.3" y1="70" x2="474.3" y2="74" stroke="#c3c2b7" stroke-width="1"/>
<text x="474.3" y="88" fill="#898781" text-anchor="middle">16</text>
<line x1="542.9" y1="70" x2="542.9" y2="74" stroke="#c3c2b7" stroke-width="1"/>
<text x="542.9" y="88" fill="#898781" text-anchor="middle">18</text>
<line x1="611.4" y1="70" x2="611.4" y2="74" stroke="#c3c2b7" stroke-width="1"/>
<text x="611.4" y="88" fill="#898781" text-anchor="middle">20</text>
<line x1="680" y1="70" x2="680" y2="74" stroke="#c3c2b7" stroke-width="1"/>
<text x="680" y="88" fill="#898781" text-anchor="middle">22</text>
<circle cx="405.7" cy="70" r="4.5" fill="#2a78d6" stroke="#fcfcfb" stroke-width="1.5"/>
<text x="405.7" y="60" text-anchor="middle">14</text>
<circle cx="251.4" cy="70" r="4.5" fill="#2a78d6" stroke="#fcfcfb" stroke-width="1.5"/>
<text x="251.4" y="60" text-anchor="middle">9.5</text>
<circle cx="645.7" cy="70" r="4.5" fill="#2a78d6" stroke="#fcfcfb" stroke-width="1.5"/>
<text x="645.7" y="60" text-anchor="middle">21</text>
<circle cx="354.3" cy="70" r="4.5" fill="#2a78d6" stroke="#fcfcfb" stroke-width="1.5"/>
<text x="354.3" y="60" text-anchor="middle">12.5</text>
<circle cx="508.6" cy="70" r="4.5" fill="#2a78d6" stroke="#fcfcfb" stroke-width="1.5"/>
<text x="508.6" y="60" text-anchor="middle">17</text>
<circle cx="268.6" cy="70" r="4.5" fill="#2a78d6" stroke="#fcfcfb" stroke-width="1.5"/>
<text x="268.6" y="46" text-anchor="middle">10</text>
<text x="20" y="166" font-weight="600">normalised ẑ</text>
<text x="20" y="184" fill="#52514e">mean 0.00, sd 1.00</text>
<line x1="200" y1="162" x2="680" y2="162" stroke="#c3c2b7" stroke-width="1"/>
<line x1="200" y1="162" x2="200" y2="166" stroke="#c3c2b7" stroke-width="1"/>
<text x="200" y="180" fill="#898781" text-anchor="middle">−2</text>
<line x1="268.6" y1="162" x2="268.6" y2="166" stroke="#c3c2b7" stroke-width="1"/>
<text x="268.6" y="180" fill="#898781" text-anchor="middle">−1</text>
<line x1="337.1" y1="162" x2="337.1" y2="166" stroke="#c3c2b7" stroke-width="1"/>
<text x="337.1" y="180" fill="#898781" text-anchor="middle">0</text>
<line x1="405.7" y1="162" x2="405.7" y2="166" stroke="#c3c2b7" stroke-width="1"/>
<text x="405.7" y="180" fill="#898781" text-anchor="middle">1</text>
<line x1="474.3" y1="162" x2="474.3" y2="166" stroke="#c3c2b7" stroke-width="1"/>
<text x="474.3" y="180" fill="#898781" text-anchor="middle">2</text>
<line x1="542.9" y1="162" x2="542.9" y2="166" stroke="#c3c2b7" stroke-width="1"/>
<text x="542.9" y="180" fill="#898781" text-anchor="middle">3</text>
<line x1="611.4" y1="162" x2="611.4" y2="166" stroke="#c3c2b7" stroke-width="1"/>
<text x="611.4" y="180" fill="#898781" text-anchor="middle">4</text>
<line x1="680" y1="162" x2="680" y2="166" stroke="#c3c2b7" stroke-width="1"/>
<text x="680" y="180" fill="#898781" text-anchor="middle">5</text>
<circle cx="337.1" cy="162" r="4.5" fill="#2a78d6" stroke="#fcfcfb" stroke-width="1.5"/>
<text x="337.1" y="138" text-anchor="middle">0</text>
<circle cx="260.2" cy="162" r="4.5" fill="#2a78d6" stroke="#fcfcfb" stroke-width="1.5"/>
<text x="260.2" y="152" text-anchor="middle">−1.12</text>
<circle cx="456.8" cy="162" r="4.5" fill="#2a78d6" stroke="#fcfcfb" stroke-width="1.5"/>
<text x="456.8" y="152" text-anchor="middle">1.75</text>
<circle cx="311.5" cy="162" r="4.5" fill="#2a78d6" stroke="#fcfcfb" stroke-width="1.5"/>
<text x="311.5" y="152" text-anchor="middle">−0.37</text>
<circle cx="388.4" cy="162" r="4.5" fill="#2a78d6" stroke="#fcfcfb" stroke-width="1.5"/>
<text x="388.4" y="152" text-anchor="middle">0.75</text>
<circle cx="268.7" cy="162" r="4.5" fill="#2a78d6" stroke="#fcfcfb" stroke-width="1.5"/>
<text x="268.7" y="138" text-anchor="middle">−1</text>
<text x="20" y="258" font-weight="600">output γẑ + β</text>
<text x="20" y="276" fill="#52514e">γ = 2, β = 1</text>
<line x1="200" y1="254" x2="680" y2="254" stroke="#c3c2b7" stroke-width="1"/>
<line x1="200" y1="254" x2="200" y2="258" stroke="#c3c2b7" stroke-width="1"/>
<text x="200" y="272" fill="#898781" text-anchor="middle">−2</text>
<line x1="268.6" y1="254" x2="268.6" y2="258" stroke="#c3c2b7" stroke-width="1"/>
<text x="268.6" y="272" fill="#898781" text-anchor="middle">−1</text>
<line x1="337.1" y1="254" x2="337.1" y2="258" stroke="#c3c2b7" stroke-width="1"/>
<text x="337.1" y="272" fill="#898781" text-anchor="middle">0</text>
<line x1="405.7" y1="254" x2="405.7" y2="258" stroke="#c3c2b7" stroke-width="1"/>
<text x="405.7" y="272" fill="#898781" text-anchor="middle">1</text>
<line x1="474.3" y1="254" x2="474.3" y2="258" stroke="#c3c2b7" stroke-width="1"/>
<text x="474.3" y="272" fill="#898781" text-anchor="middle">2</text>
<line x1="542.9" y1="254" x2="542.9" y2="258" stroke="#c3c2b7" stroke-width="1"/>
<text x="542.9" y="272" fill="#898781" text-anchor="middle">3</text>
<line x1="611.4" y1="254" x2="611.4" y2="258" stroke="#c3c2b7" stroke-width="1"/>
<text x="611.4" y="272" fill="#898781" text-anchor="middle">4</text>
<line x1="680" y1="254" x2="680" y2="258" stroke="#c3c2b7" stroke-width="1"/>
<text x="680" y="272" fill="#898781" text-anchor="middle">5</text>
<circle cx="405.7" cy="254" r="4.5" fill="#2a78d6" stroke="#fcfcfb" stroke-width="1.5"/>
<text x="405.7" y="244" text-anchor="middle">1</text>
<circle cx="251.8" cy="254" r="4.5" fill="#2a78d6" stroke="#fcfcfb" stroke-width="1.5"/>
<text x="251.8" y="244" text-anchor="middle">−1.24</text>
<circle cx="645.1" cy="254" r="4.5" fill="#2a78d6" stroke="#fcfcfb" stroke-width="1.5"/>
<text x="645.1" y="244" text-anchor="middle">4.49</text>
<circle cx="354.4" cy="254" r="4.5" fill="#2a78d6" stroke="#fcfcfb" stroke-width="1.5"/>
<text x="354.4" y="244" text-anchor="middle">0.25</text>
<circle cx="508.3" cy="254" r="4.5" fill="#2a78d6" stroke="#fcfcfb" stroke-width="1.5"/>
<text x="508.3" y="244" text-anchor="middle">2.5</text>
<circle cx="268.9" cy="254" r="4.5" fill="#2a78d6" stroke="#fcfcfb" stroke-width="1.5"/>
<text x="268.9" y="230" text-anchor="middle">−0.99</text>
<text x="20" y="318" fill="#52514e">Batch mean 14 and variance 16.083 come from these six values alone; ε = 0.00001 guards the division.</text>
</g>
</svg>
