<?xml version="1.0" encoding="UTF-8"?>
<svg xmlns="http://www.w3.org/2000/svg" viewBox="0 0 720 300" width="720" height="300" role="img" aria-labelledby="title desc">
<title id="title">Q·Kᵀ/√d_k scores every query against every key, softmax over each row gives weights that sum to 1, and each output row blends the value rows</title>
<desc id="desc">Left to right: Q, K transposed, the score matrix, the scaled scores, the weight heatmap with row sums, V and the output; one row is outlined through every stage and its blend is written out.</desc>
<rect width="720" height="300" fill="#fcfcfb"/>
<g font-family="system-ui, -apple-system, 'Segoe UI', Helvetica, Arial, sans-serif" font-size="12" fill="#0b0b0b">
<rect x="16" y="70" width="22" height="26" rx="2" fill="#fcfcfb" stroke="#e1e0d9" stroke-width="1"/>
<text x="27" y="87" text-anchor="middle">1</text>
<rect x="38" y="70" width="22" height="26" rx="2" fill="#fcfcfb" stroke="#e1e0d9" stroke-width="1"/>
<text x="49" y="87" text-anchor="middle">0</text>
<rect x="16" y="96" width="22" height="26" rx="2" fill="#fcfcfb" stroke="#e1e0d9" stroke-width="1"/>
<text x="27" y="113" text-anchor="middle">0</text>
<rect x="38" y="96" width="22" height="26" rx="2" fill="#fcfcfb" stroke="#e1e0d9" stroke-width="1"/>
<text x="49" y="113" text-anchor="middle">1</text>
<rect x="16" y="122" width="22" height="26" rx="2" fill="#fcfcfb" stroke="#e1e0d9" stroke-width="1"/>
<text x="27" y="139" text-anchor="middle">1</text>
<rect x="38" y="122" width="22" height="26" rx="2" fill="#fcfcfb" stroke="#e1e0d9" stroke-width="1"/>
<text x="49" y="139" text-anchor="middle">1</text>
<text x="38" y="60" text-anchor="middle">Q</text>
<text x="68" y="113" fill="#52514e" text-anchor="middle">·</text>
<rect x="76" y="70" width="22" height="26" rx="2" fill="#fcfcfb" stroke="#e1e0d9" stroke-width="1"/>
<text x="87" y="87" text-anchor="middle">0</text>
<rect x="98" y="70" width="22" height="26" rx="2" fill="#fcfcfb" stroke="#e1e0d9" stroke-width="1"/>
<text x="109" y="87" text-anchor="middle">1</text>
<rect x="120" y="70" width="22" height="26" rx="2" fill="#fcfcfb" stroke="#e1e0d9" stroke-width="1"/>
<text x="131" y="87" text-anchor="middle">1</text>
<rect x="76" y="96" width="22" height="26" rx="2" fill="#fcfcfb" stroke="#e1e0d9" stroke-width="1"/>
<text x="87" y="113" text-anchor="middle">1</text>
<rect x="98" y="96" width="22" height="26" rx="2" fill="#fcfcfb" stroke="#e1e0d9" stroke-width="1"/>
<text x="109" y="113" text-anchor="middle">0</text>
<rect x="120" y="96" width="22" height="26" rx="2" fill="#fcfcfb" stroke="#e1e0d9" stroke-width="1"/>
<text x="131" y="113" text-anchor="middle">1</text>
<text x="109" y="60" text-anchor="middle">Kᵀ</text>
<text x="150" y="113" fill="#52514e" text-anchor="middle">=</text>
<rect x="158" y="70" width="22" height="26" rx="2" fill="#fcfcfb" stroke="#e1e0d9" stroke-width="1"/>
<text x="169" y="87" text-anchor="middle">0</text>
<rect x="180" y="70" width="22" height="26" rx="2" fill="#fcfcfb" stroke="#e1e0d9" stroke-width="1"/>
<text x="191" y="87" text-anchor="middle">1</text>
<rect x="202" y="70" width="22" height="26" rx="2" fill="#fcfcfb" stroke="#e1e0d9" stroke-width="1"/>
<text x="213" y="87" text-anchor="middle">1</text>
<rect x="158" y="96" width="22" height="26" rx="2" fill="#fcfcfb" stroke="#e1e0d9" stroke-width="1"/>
<text x="169" y="113" text-anchor="middle">1</text>
<rect x="180" y="96" width="22" height="26" rx="2" fill="#fcfcfb" stroke="#e1e0d9" stroke-width="1"/>
<text x="191" y="113" text-anchor="middle">0</text>
<rect x="202" y="96" width="22" height="26" rx="2" fill="#fcfcfb" stroke="#e1e0d9" stroke-width="1"/>
<text x="213" y="113" text-anchor="middle">1</text>
<rect x="158" y="122" width="22" height="26" rx="2" fill="#fcfcfb" stroke="#e1e0d9" stroke-width="1"/>
<text x="169" y="139" text-anchor="middle">1</text>
<rect x="180" y="122" width="22" height="26" rx="2" fill="#fcfcfb" stroke="#e1e0d9" stroke-width="1"/>
<text x="191" y="139" text-anchor="middle">1</text>
<rect x="202" y="122" width="22" height="26" rx="2" fill="#fcfcfb" stroke="#e1e0d9" stroke-width="1"/>
<text x="213" y="139" text-anchor="middle">2</text>
<text x="191" y="60" text-anchor="middle">scores</text>
<text x="244" y="113" fill="#52514e" text-anchor="middle">÷√2 →</text>
<rect x="264" y="70" width="63" height="26" rx="2" fill="#86b6ef" stroke="#e1e0d9" stroke-width="1"/>
<text x="295.5" y="87" text-anchor="middle">0.197776</text>
<rect x="327" y="70" width="63" height="26" rx="2" fill="#3987e5" stroke="#e1e0d9" stroke-width="1"/>
<text x="358.5" y="87" text-anchor="middle">0.401112</text>
<rect x="390" y="70" width="63" height="26" rx="2" fill="#3987e5" stroke="#e1e0d9" stroke-width="1"/>
<text x="421.5" y="87" text-anchor="middle">0.401112</text>
<rect x="264" y="96" width="63" height="26" rx="2" fill="#3987e5" stroke="#e1e0d9" stroke-width="1"/>
<text x="295.5" y="113" text-anchor="middle">0.401112</text>
<rect x="327" y="96" width="63" height="26" rx="2" fill="#86b6ef" stroke="#e1e0d9" stroke-width="1"/>
<text x="358.5" y="113" text-anchor="middle">0.197776</text>
<rect x="390" y="96" width="63" height="26" rx="2" fill="#3987e5" stroke="#e1e0d9" stroke-width="1"/>
<text x="421.5" y="113" text-anchor="middle">0.401112</text>
<rect x="264" y="122" width="63" height="26" rx="2" fill="#86b6ef" stroke="#e1e0d9" stroke-width="1"/>
<text x="295.5" y="139" text-anchor="middle">0.248255</text>
<rect x="327" y="122" width="63" height="26" rx="2" fill="#86b6ef" stroke="#e1e0d9" stroke-width="1"/>
<text x="358.5" y="139" text-anchor="middle">0.248255</text>
<rect x="390" y="122" width="63" height="26" rx="2" fill="#2a78d6" stroke="#e1e0d9" stroke-width="1"/>
<text x="421.5" y="139" text-anchor="middle">0.503490</text>
<text x="358.5" y="60" text-anchor="middle">weights</text>
<text x="358.5" y="162" font-size="11" fill="#52514e" text-anchor="middle">softmax over each row</text>
<rect x="457" y="70" width="22" height="26" rx="2" fill="#fcfcfb" stroke="#e1e0d9" stroke-width="1"/>
<text x="468" y="87" text-anchor="middle">1</text>
<rect x="457" y="96" width="22" height="26" rx="2" fill="#fcfcfb" stroke="#e1e0d9" stroke-width="1"/>
<text x="468" y="113" text-anchor="middle">1</text>
<rect x="457" y="122" width="22" height="26" rx="2" fill="#fcfcfb" stroke="#e1e0d9" stroke-width="1"/>
<text x="468" y="139" text-anchor="middle">1</text>
<text x="468" y="60" text-anchor="middle">Σ</text>
<text x="487" y="113" fill="#52514e" text-anchor="middle">×</text>
<rect x="495" y="70" width="22" height="26" rx="2" fill="#fcfcfb" stroke="#e1e0d9" stroke-width="1"/>
<text x="506" y="87" text-anchor="middle">2</text>
<rect x="517" y="70" width="22" height="26" rx="2" fill="#fcfcfb" stroke="#e1e0d9" stroke-width="1"/>
<text x="528" y="87" text-anchor="middle">0</text>
<rect x="495" y="96" width="22" height="26" rx="2" fill="#fcfcfb" stroke="#e1e0d9" stroke-width="1"/>
<text x="506" y="113" text-anchor="middle">0</text>
<rect x="517" y="96" width="22" height="26" rx="2" fill="#fcfcfb" stroke="#e1e0d9" stroke-width="1"/>
<text x="528" y="113" text-anchor="middle">1</text>
<rect x="495" y="122" width="22" height="26" rx="2" fill="#fcfcfb" stroke="#e1e0d9" stroke-width="1"/>
<text x="506" y="139" text-anchor="middle">2</text>
<rect x="517" y="122" width="22" height="26" rx="2" fill="#fcfcfb" stroke="#e1e0d9" stroke-width="1"/>
<text x="528" y="139" text-anchor="middle">1</text>
<text x="517" y="60" text-anchor="middle">V</text>
<text x="547" y="113" fill="#52514e" text-anchor="middle">=</text>
<rect x="555" y="70" width="63" height="26" rx="2" fill="#fcfcfb" stroke="#e1e0d9" stroke-width="1"/>
<text x="586.5" y="87" text-anchor="middle">1.197776</text>
<rect x="618" y="70" width="63" height="26" rx="2" fill="#fcfcfb" stroke="#e1e0d9" stroke-width="1"/>
<text x="649.5" y="87" text-anchor="middle">0.802224</text>
<rect x="555" y="96" width="63" height="26" rx="2" fill="#fcfcfb" stroke="#e1e0d9" stroke-width="1"/>
<text x="586.5" y="113" text-anchor="middle">1.604448</text>
<rect x="618" y="96" width="63" height="26" rx="2" fill="#fcfcfb" stroke="#e1e0d9" stroke-width="1"/>
<text x="649.5" y="113" text-anchor="middle">0.598888</text>
<rect x="555" y="122" width="63" height="26" rx="2" fill="#fcfcfb" stroke="#e1e0d9" stroke-width="1"/>
<text x="586.5" y="139" text-anchor="middle">1.503490</text>
<rect x="618" y="122" width="63" height="26" rx="2" fill="#fcfcfb" stroke="#e1e0d9" stroke-width="1"/>
<text x="649.5" y="139" text-anchor="middle">0.751745</text>
<text x="618" y="60" text-anchor="middle">output</text>
<rect x="13" y="67" width="671" height="32" rx="2" fill="none" stroke="#2a78d6" stroke-width="1.5"/>
<text x="360" y="196" text-anchor="middle">row 1: 0.197776·[2, 0] + 0.401112·[0, 1] + 0.401112·[2, 1] = [1.197776, 0.802224]</text>
<text x="360" y="224" font-size="11" fill="#52514e" text-anchor="middle">Q = X·P_Q, K = X·P_K, V = X·P_V with P_Q = I, P_K = [[0,1],[1,0]], P_V = diag(2, 1); no mask, no dropout</text>
<text x="360" y="244" font-size="11" fill="#52514e" text-anchor="middle">softmax runs along the last axis (over the keys); each output row is a convex blend of the value rows</text>
<text x="360" y="274" font-size="11" fill="#898781" text-anchor="middle">darker cell = larger weight (one hue, light to dark)</text>
</g>
</svg>
